<svg xmlns="http://www.w3.org/2000/svg" height="40" width="82" viewBox="0 0 1680 820">
    <g transform="translate(0,820) scale(0.1,-0.1)" fill="#000000" stroke="none">
        <path d="M3938 7593 c-14 -16 -87 -173 -169 -366 l-144 -337 -40 -10 c-204
-52 -484 -163 -676 -270 l-106 -59 -354 140 c-278 111 -360 139 -384 135 -23
-5 -89 -64 -273 -249 -224 -225 -242 -246 -242 -277 1 -21 58 -178 139 -379
l138 -345 -39 -70 c-113 -202 -205 -422 -269 -639 -26 -91 -38 -119 -54 -124
-11 -3 -108 -44 -215 -90 -107 -46 -249 -107 -315 -135 -66 -28 -133 -64 -150
-80 l-30 -28 -3 -330 c-3 -363 0 -383 56 -410 43 -21 499 -218 594 -257 l87
-36 12 -51 c42 -176 145 -435 252 -636 40 -74 71 -139 69 -145 -2 -5 -63 -162
-137 -348 -75 -186 -135 -351 -135 -369 0 -29 27 -59 242 -275 184 -184 250
-244 273 -249 24 -4 106 25 385 135 l354 141 105 -59 c194 -107 387 -187 587
-245 65 -18 123 -41 129 -50 7 -9 74 -161 150 -339 99 -232 145 -330 166 -349
l29 -28 175 0 175 0 0 725 0 725 -68 0 c-169 0 -459 54 -650 122 -48 16 -141
56 -207 89 -652 318 -1090 938 -1176 1663 -15 126 -6 462 14 572 114 605 424
1083 917 1414 318 213 747 349 1103 350 l67 0 0 725 0 725 -178 0 -178 0 -26
-27z" fill="#005500"/>
        <path d="M4080 5949 c-42 -4 -126 -19 -187 -33 -61 -14 -114 -26 -116 -26 -3
0 -7 -165 -9 -368 l-3 -367 -33 -67 c-38 -77 -92 -130 -171 -167 l-56 -26
-452 -3 -451 -3 -35 -82 c-69 -164 -135 -405 -114 -419 7 -4 399 -7 872 -5
811 2 863 3 888 20 16 10 37 32 47 50 19 30 20 53 20 429 0 387 0 397 -20 403
-34 11 -98 78 -119 125 -27 59 -28 159 -2 215 47 103 133 159 246 159 61 0 78
-4 125 -30 98 -55 153 -166 136 -274 -10 -67 -57 -143 -110 -176 l-44 -29 -4
-420 -3 -420 -33 -67 c-39 -80 -102 -139 -178 -168 -54 -20 -74 -20 -954 -20
l-900 0 -6 -26 c-9 -36 4 -247 22 -369 17 -109 70 -325 84 -339 5 -5 173 -8
377 -7 368 2 368 2 383 24 101 153 298 180 421 57 168 -168 51 -455 -186 -453
-96 1 -163 38 -228 126 l-28 37 -318 0 c-175 0 -320 -3 -323 -6 -10 -9 99
-191 172 -289 292 -390 710 -650 1195 -742 44 -8 166 -17 270 -20 206 -6 337
7 513 49 l92 22 0 390 c0 222 5 410 10 436 23 104 93 189 193 236 l52 24 457
0 c251 0 467 4 480 9 19 7 31 31 61 119 20 61 37 113 37 116 0 4 -451 6 -1003
6 -1102 0 -1029 4 -1062 -60 -12 -24 -15 -79 -15 -298 l0 -269 52 -39 c129
-97 145 -276 34 -393 -55 -58 -109 -82 -190 -82 -110 -1 -195 50 -242 147 -23
48 -26 63 -22 127 3 46 13 87 26 113 22 44 78 98 111 109 19 6 20 16 23 308
l3 302 28 57 c35 71 87 125 153 158 l49 25 1047 3 1048 2 5 23 c9 36 20 236
17 304 l-3 62 -392 3 c-384 3 -393 3 -438 26 -74 36 -125 87 -161 160 l-33 67
-3 337 -3 337 -33 20 c-144 89 -167 302 -44 417 105 100 270 100 369 1 124
-124 101 -326 -48 -419 l-33 -20 0 -306 c0 -338 2 -352 63 -396 27 -20 43 -21
335 -24 169 -2 327 0 351 3 l43 7 -7 46 c-19 124 -107 373 -181 511 -295 545
-814 910 -1417 996 -109 16 -370 18 -497 4z" fill="#34ab00"/>
        <path d="M3443 5751 c-251 -131 -469 -314 -641 -540 -35 -46 -66 -89 -69 -97
-5 -13 45 -15 368 -12 417 3 404 1 439 74 19 38 20 59 18 337 l-3 296 -112
-58z" fill="#34ab00"/>
        <path d="M4352 5564 c-40 -27 -18 -104 29 -104 29 0 59 31 59 60 0 28 -30 60
-55 60 -6 0 -21 -7 -33 -16z" fill="#34ab00"/>
        <path d="M5262 5407 c-26 -12 -40 -53 -25 -75 26 -41 81 -40 100 1 22 48 -27
96 -75 74z" fill="#34ab00"/>
        <path d="M7210 4696 c-151 -32 -251 -153 -251 -304 0 -88 13 -138 54 -198 104
-155 327 -187 482 -68 19 14 35 32 35 38 0 7 -18 29 -40 51 -37 36 -41 37 -57
22 -30 -27 -106 -57 -145 -57 -102 0 -187 90 -188 201 0 60 39 137 87 169 29
20 49 25 98 25 52 0 71 -5 113 -32 l51 -32 42 50 c31 37 39 52 30 62 -21 26
-107 65 -165 76 -70 13 -75 13 -146 -3z" fill="#FFFFFF"/>
        <path d="M7981 4700 c-63 -14 -124 -46 -171 -92 -151 -146 -116 -411 67 -510
180 -98 416 -20 482 158 30 80 29 192 -4 261 -62 134 -224 213 -374 183z m137
-135 c142 -60 164 -250 40 -348 -63 -51 -166 -45 -234 11 -37 31 -64 96 -64
153 0 142 132 236 258 184z" fill="#FFFFFF"/>
        <path d="M8624 4685 c-3 -6 -3 -147 -2 -314 l3 -304 58 0 c32 0 60 2 62 5 2 2
5 88 5 191 1 104 6 187 11 187 5 0 45 -54 89 -120 44 -66 82 -120 84 -120 2 0
41 56 86 125 45 69 84 124 87 121 3 -2 4 -90 3 -195 l-1 -191 71 0 70 0 -2
313 -3 312 -68 1 c-79 2 -72 8 -168 -150 -35 -58 -68 -106 -74 -106 -5 1 -44
56 -85 123 -41 67 -79 125 -85 129 -15 11 -137 5 -141 -7z" fill="#FFFFFF"/>
        <path d="M9523 4694 c-10 -4 -13 -77 -13 -315 l0 -309 70 0 69 0 3 93 3 92 70
1 c124 2 176 18 228 70 45 45 59 89 54 166 -6 91 -36 136 -113 174 -55 27 -66
28 -208 31 -83 1 -157 0 -163 -3z m317 -151 c21 -19 31 -38 32 -58 2 -80 -33
-105 -147 -105 l-75 0 0 95 0 95 80 0 c73 0 82 -2 110 -27z" fill="#FFFFFF"/>
        <path d="M10358 4648 c-79 -182 -245 -573 -244 -575 1 -1 30 -3 66 -5 72 -3
68 -6 110 95 l20 48 131 -3 c105 -2 133 -6 140 -18 4 -8 18 -39 31 -69 l23
-53 68 -2 c37 0 67 3 67 8 0 8 -106 261 -228 544 l-35 82 -63 0 -63 0 -23 -52z
m129 -219 c18 -46 33 -89 33 -94 0 -11 -144 -14 -155 -4 -9 10 67 190 79 186
5 -2 25 -41 43 -88z" fill="#FFFFFF"/>
        <path d="M10997 4694 c-4 -4 -7 -146 -7 -315 l0 -307 61 -4 c33 -1 63 -1 65 1
2 2 4 89 4 193 0 105 4 188 9 186 10 -4 239 -294 292 -371 3 -5 33 -9 65 -10
l59 -2 0 315 0 315 -65 0 -65 0 -5 -190 -5 -190 -70 91 c-38 50 -104 136 -146
191 l-77 99 -54 3 c-29 1 -57 -1 -61 -5z" fill="#FFFFFF"/>
        <path d="M11750 4690 c0 -3 7 -15 15 -27 9 -12 63 -97 120 -188 l105 -166 0
-119 c0 -65 3 -120 8 -122 4 -2 35 -2 70 0 l62 4 0 125 0 125 115 180 c63 99
115 183 115 187 0 9 -132 8 -146 -1 -6 -4 -42 -59 -80 -122 -38 -64 -72 -116
-75 -116 -4 0 -39 54 -78 119 -39 66 -80 122 -90 126 -22 7 -141 3 -141 -5z" fill="#FFFFFF"/>
        <path d="M12963 4693 c-10 -4 -13 -75 -13 -312 0 -169 2 -310 4 -312 2 -2 32
-2 65 -1 l61 4 0 189 c0 104 4 189 8 189 4 0 74 -87 155 -192 l146 -193 61 3
60 4 0 309 0 309 -24 6 c-13 3 -44 4 -67 2 l-44 -4 -5 -189 -5 -190 -125 164
c-173 227 -157 211 -215 215 -27 2 -56 2 -62 -1z" fill="#FFFFFF"/>
        <path d="M13855 4393 c-71 -168 -131 -309 -133 -314 -3 -8 116 -17 128 -9 4 3
21 36 38 73 l31 68 132 -3 133 -3 26 -65 26 -65 68 -5 c37 -3 70 -2 72 1 2 3
-45 120 -105 260 -59 140 -118 280 -131 312 l-24 57 -65 0 -66 0 -130 -307z
m238 37 c20 -49 37 -93 37 -97 0 -8 -151 -5 -159 3 -2 2 9 34 24 71 15 37 31
78 36 91 5 12 12 22 17 22 5 0 25 -40 45 -90z" fill="#FFFFFF"/>
        <path d="M14597 4694 c-4 -4 -7 -146 -7 -316 l0 -308 43 -1 c23 -1 53 -2 67
-3 l25 -1 5 200 5 200 69 -105 c38 -58 77 -115 87 -128 l18 -23 83 125 c46 69
86 126 90 126 4 0 9 -89 10 -197 l3 -197 45 1 c25 1 53 2 63 2 16 1 17 23 17
316 l0 316 -72 -3 -72 -3 -78 -125 c-42 -69 -82 -125 -88 -125 -6 0 -46 56
-89 125 l-78 124 -69 3 c-39 2 -73 0 -77 -3z" fill="#FFFFFF"/>
        <path d="M15503 4693 c-10 -4 -13 -76 -13 -314 l0 -309 240 0 241 0 -3 58 -3
57 -172 3 -173 2 0 65 0 65 150 0 150 0 0 60 0 59 -147 3 -148 3 -3 63 -3 62
171 0 170 0 0 65 0 66 -222 -2 c-123 -1 -229 -3 -235 -6z" fill="#FFFFFF"/>
        <path d="M8602 3799 c-77 -23 -143 -134 -126 -213 17 -83 68 -134 155 -156
146 -37 282 116 228 257 -35 92 -150 142 -257 112z m129 -82 c101 -68 57 -217
-65 -217 -55 0 -106 54 -106 111 0 53 24 97 63 114 45 20 69 18 108 -8z" fill="#FFFFFF"/>
        <path d="M10653 3798 c-6 -7 -45 -93 -86 -190 l-75 -178 42 0 c38 1 42 3 61
43 l20 42 75 0 75 0 19 -42 c18 -41 22 -43 62 -43 l42 0 -67 158 c-95 222 -91
215 -127 219 -17 2 -36 -2 -41 -9z m61 -151 c9 -23 16 -46 16 -50 0 -4 -18 -7
-40 -7 -22 0 -40 4 -40 10 0 17 32 90 40 90 4 0 15 -19 24 -43z" fill="#FFFFFF"/>
        <path d="M11080 3788 c-26 -13 -58 -41 -75 -66 -26 -38 -30 -52 -29 -106 1
-99 49 -161 146 -187 48 -13 125 2 175 32 33 21 33 21 33 100 l0 79 -80 0 -80
0 0 -35 c0 -29 3 -34 23 -33 49 2 57 -2 57 -27 0 -30 -26 -45 -80 -45 -34 0
-48 6 -76 34 -28 28 -34 42 -34 76 0 77 39 119 110 120 27 0 55 -7 69 -17 23
-16 25 -15 48 13 12 16 23 31 23 34 0 17 -70 43 -124 47 -50 4 -69 0 -106 -19z" fill="#FFFFFF"/>
        <path d="M8046 3788 c4 -7 36 -57 71 -111 l63 -97 0 -75 0 -75 40 0 40 0 0 75
0 74 70 108 69 108 -35 3 c-52 5 -57 1 -100 -72 -21 -36 -41 -66 -44 -66 -3 0
-23 32 -45 70 l-40 70 -48 0 c-36 0 -46 -3 -41 -12z" fill="#FFFFFF"/>
        <path d="M9010 3668 c0 -152 12 -189 69 -222 47 -27 142 -27 178 0 62 47 68
64 71 215 l4 139 -41 0 -41 0 0 -125 c0 -120 -1 -127 -25 -150 -15 -16 -36
-25 -55 -25 -19 0 -40 9 -55 25 -24 23 -25 30 -25 150 l0 125 -40 0 -40 0 0
-132z" fill="#FFFFFF"/>
        <path d="M9480 3615 l0 -185 40 0 40 0 0 60 0 60 35 0 c31 0 38 -6 75 -60 40
-59 42 -60 87 -60 l45 0 -17 28 c-10 15 -28 41 -41 59 -13 17 -24 34 -24 36 0
3 16 21 35 40 30 30 35 41 35 84 0 97 -43 123 -200 123 l-110 0 0 -185z m208
99 c26 -18 29 -56 6 -75 -10 -8 -41 -14 -73 -14 l-56 0 -3 39 c-2 21 -1 44 2
52 7 20 95 18 124 -2z" fill="#FFFFFF"/>
        <path d="M10130 3765 l0 -34 58 -3 57 -3 3 -147 3 -148 39 0 40 0 0 150 0 150
55 0 55 0 0 35 0 35 -155 0 -155 0 0 -35z" fill="#FFFFFF"/>
        <path d="M11470 3615 l0 -185 135 0 135 0 0 35 0 34 -92 3 -93 3 -3 148 -3
147 -39 0 -40 0 0 -185z"  fill="#FFFFFF"/>
        <path d="M11877 3794 c-3 -3 -6 -86 -7 -185 l-1 -179 46 0 46 0 -2 185 -2 185
-37 0 c-20 0 -39 -3 -43 -6z" fill="#FFFFFF"/>
        <path d="M12110 3615 l0 -185 45 0 45 0 0 111 c0 69 4 108 10 104 10 -6 108
-132 145 -186 16 -23 27 -29 58 -29 l37 0 0 185 0 185 -40 0 -40 0 0 -105 c0
-58 -4 -105 -9 -105 -5 0 -45 47 -88 105 -78 105 -78 105 -120 105 l-43 0 0
-185z"  fill="#FFFFFF"/>
        <path d="M12600 3615 l0 -185 145 0 145 0 0 35 0 34 -102 3 -103 3 -2 38 -3
37 90 0 90 0 0 35 0 34 -87 3 -88 3 -3 37 -3 37 103 3 103 3 0 30 0 30 -142 3
-143 3 0 -186z"  fill="#FFFFFF"/>
        <path d="M13250 3615 l0 -185 40 0 39 0 3 73 3 72 78 3 77 3 0 -76 0 -75 40 0
40 0 0 185 0 185 -40 0 -39 0 -3 -72 -3 -73 -54 -3 c-97 -6 -101 -2 -101 78
l0 70 -40 0 -40 0 0 -185z" fill="#FFFFFF"/>
        <path d="M13730 3615 l0 -185 140 0 140 0 0 35 0 35 -100 0 -100 0 0 40 0 39
86 3 87 3 2 33 3 32 -74 1 c-41 1 -80 2 -86 3 -7 0 -14 18 -16 38 l-3 37 98 3
98 3 3 33 3 32 -140 0 -141 0 0 -185z" fill="#FFFFFF"/>
        <path d="M14150 3615 l0 -185 40 0 40 0 0 60 0 60 35 0 c31 0 38 -6 75 -60 40
-59 42 -60 87 -60 l45 0 -18 28 c-9 15 -28 44 -42 64 l-24 37 36 34 c32 30 36
40 36 83 0 98 -43 124 -200 124 l-110 0 0 -185z m210 95 c44 -44 16 -79 -65
-82 l-60 -3 -3 39 c-5 59 1 66 58 66 37 0 55 -5 70 -20z"  fill="#FFFFFF"/>
        <path d="M14600 3615 l0 -185 145 0 145 0 0 35 0 34 -102 3 -103 3 -3 38 -3
37 90 0 91 0 0 35 0 34 -87 3 -88 3 -3 37 -3 37 103 3 103 3 3 33 3 32 -145 0
-146 0 0 -185z" fill="#FFFFFF"/>
        <path d="M3477 3372 c-26 -28 -21 -69 9 -89 24 -15 29 -15 53 -2 16 9 27 25
29 43 7 55 -56 87 -91 48z" fill="#34ab00"/>
        <path d="M5165 3123 c-30 -6 -72 -45 -85 -77 -15 -39 -14 -716 1 -716 24 0
224 113 324 184 152 107 287 235 406 386 43 54 137 194 145 215 5 13 -41 15
-382 14 -214 -1 -398 -4 -409 -6z" fill="#34ab00"/>
        <path d="M3932 2744 c-26 -18 -30 -65 -7 -84 8 -7 27 -12 42 -12 48 0 71 63
35 95 -23 21 -41 21 -70 1z" fill="#34ab00"/>
    </g>
</svg>
